<svg width="24" height="24" viewBox="0 0 24 24" fill="none" xmlns="http://www.w3.org/2000/svg">
<path d="M4.90295 22.0969L15.1029 12.4969L19.903 17.2969M4.90295 22.0969H16.903C18.8912 22.0969 20.503 20.4852 20.503 18.4969V12.4969M4.90295 22.0969C2.91472 22.0969 1.30295 20.4852 1.30295 18.4969V6.49694C1.30295 4.50872 2.91472 2.89694 4.90295 2.89694H12.7029M19.303 8.69106L19.303 5.29694M19.303 5.29694L19.303 1.90283M19.303 5.29694L15.9088 5.29694M19.303 5.29694L22.6971 5.29694M8.50295 8.29694C8.50295 9.29106 7.69706 10.0969 6.70295 10.0969C5.70884 10.0969 4.90295 9.29106 4.90295 8.29694C4.90295 7.30283 5.70884 6.49694 6.70295 6.49694C7.69706 6.49694 8.50295 7.30283 8.50295 8.29694Z" stroke="white" stroke-width="2" stroke-linecap="round" stroke-linejoin="round"/>
</svg>
