<svg width="21" height="16" viewBox="0 0 21 16" fill="none" xmlns="http://www.w3.org/2000/svg">
<path d="M20.0286 9.48351C19.8011 9.3082 19.5403 9.18101 19.2621 9.10971C18.9839 9.0384 18.6941 9.02446 18.4103 9.06873C20.0434 7.42004 20.8695 5.78092 20.8695 4.17397C20.8695 1.87225 19.0182 8.15899e-05 16.7425 8.15899e-05C16.1387 -0.00371029 15.5414 0.124711 14.9925 0.37633C14.4436 0.627949 13.9564 0.996666 13.5651 1.4566C13.1739 0.996666 12.6867 0.627949 12.1378 0.37633C11.5889 0.124711 10.9916 -0.00371029 10.3878 8.15899e-05C8.11213 8.15899e-05 6.26084 1.87225 6.26084 4.17397C6.26084 5.13049 6.54257 6.06005 7.13562 7.04352C6.64991 7.16658 6.20666 7.41901 5.85301 7.77395L3.88607 9.73916H1.3913C1.0223 9.73916 0.66842 9.88575 0.407502 10.1467C0.146583 10.4076 0 10.7615 0 11.1305L0 14.6087C0 14.9777 0.146583 15.3316 0.407502 15.5925C0.66842 15.8534 1.0223 16 1.3913 16H10.4347C10.4916 16 10.5483 15.993 10.6034 15.9791L16.1686 14.5878C16.2041 14.5794 16.2387 14.5677 16.2721 14.5531L19.6521 13.1148L19.6903 13.0974C20.0152 12.9351 20.2933 12.6927 20.4986 12.3932C20.7039 12.0937 20.8296 11.7468 20.8638 11.3853C20.898 11.0237 20.8396 10.6595 20.694 10.3267C20.5485 9.99404 20.3207 9.70385 20.0321 9.48351H20.0286ZM10.3878 1.39138C10.9266 1.38349 11.4555 1.53649 11.9068 1.8308C12.3582 2.1251 12.7116 2.54735 12.9217 3.04354C12.9741 3.17113 13.0632 3.28026 13.1778 3.35706C13.2924 3.43386 13.4272 3.47487 13.5651 3.47487C13.7031 3.47487 13.8379 3.43386 13.9525 3.35706C14.0671 3.28026 14.1562 3.17113 14.2086 3.04354C14.4187 2.54735 14.7721 2.1251 15.2235 1.8308C15.6748 1.53649 16.2037 1.38349 16.7425 1.39138C18.2251 1.39138 19.4782 2.66529 19.4782 4.17397C19.4782 5.87049 18.1051 7.78961 15.5077 9.73047L14.5434 9.9522C14.628 9.59463 14.6307 9.22254 14.5511 8.86382C14.4714 8.50509 14.3117 8.16904 14.0837 7.88085C13.8557 7.59266 13.5655 7.3598 13.2348 7.19973C12.904 7.03966 12.5413 6.95653 12.1739 6.95657H8.75474C8.00431 5.9444 7.65213 5.05397 7.65213 4.17397C7.65213 2.66529 8.90517 1.39138 10.3878 1.39138ZM1.3913 11.1305H3.47824V14.6087H1.3913V11.1305ZM19.0808 11.8444L15.7764 13.2513L10.3478 14.6087H4.86954V10.7226L6.83736 8.75569C6.96608 8.62593 7.11932 8.52306 7.28815 8.45305C7.45699 8.38303 7.63805 8.34728 7.82083 8.34787H12.1739C12.4506 8.34787 12.716 8.4578 12.9117 8.65349C13.1074 8.84918 13.2173 9.11459 13.2173 9.39134C13.2173 9.66808 13.1074 9.93349 12.9117 10.1292C12.716 10.3249 12.4506 10.4348 12.1739 10.4348H9.73908C9.55458 10.4348 9.37764 10.5081 9.24718 10.6386C9.11672 10.769 9.04343 10.946 9.04343 11.1305C9.04343 11.315 9.11672 11.4919 9.24718 11.6224C9.37764 11.7528 9.55458 11.8261 9.73908 11.8261H12.5217C12.574 11.826 12.6262 11.8201 12.6773 11.8087L18.5034 10.4687L18.5303 10.4618C18.7082 10.4124 18.898 10.4305 19.0633 10.5127C19.2286 10.5949 19.3576 10.7353 19.4256 10.9069C19.4936 11.0785 19.4957 11.2691 19.4316 11.4422C19.3674 11.6153 19.2416 11.7585 19.0782 11.8444H19.0808Z" fill="white"/>
</svg>
