<svg width="17" height="17" viewBox="0 0 17 17" fill="none" xmlns="http://www.w3.org/2000/svg">
<path d="M8.56995 16.1399C12.7507 16.1399 16.1399 12.7507 16.1399 8.56995C16.1399 4.38918 12.7507 1 8.56995 1C4.38918 1 1 4.38918 1 8.56995C1 12.7507 4.38918 16.1399 8.56995 16.1399Z" stroke="white" stroke-width="0.8" stroke-linecap="round" stroke-linejoin="round"/>
<path d="M8.60488 4.96C9.94488 4.96 10.6849 5.76 10.6849 6.79C10.6849 7.49 10.3449 8.12 9.63488 8.83C9.02488 9.44 8.87488 9.71 8.84488 10.2H7.98488C8.04488 9.61 8.22488 9.24 8.78488 8.6C9.49488 7.79 9.72488 7.39 9.72488 6.79C9.72488 6.1 9.29488 5.64 8.57488 5.64C7.82488 5.64 7.31488 6.13 7.25488 7.06H6.35488C6.39488 5.78 7.29488 4.96 8.60488 4.96ZM8.41488 10.86C8.78488 10.86 9.05488 11.13 9.05488 11.5C9.05488 11.87 8.78488 12.14 8.41488 12.14C8.04488 12.14 7.77488 11.87 7.77488 11.5C7.77488 11.13 8.04488 10.86 8.41488 10.86Z" fill="white"/>
</svg>
