<svg width="55" height="58" viewBox="0 0 55 58" fill="none" xmlns="http://www.w3.org/2000/svg">
<path d="M53.9308 22.6919C53.9264 21.151 53.2147 19.6961 51.9965 18.735L30.9045 2.11166C29.0416 0.643529 26.4046 0.628098 24.5238 2.07418L2.88297 18.7152C1.69607 19.6278 1 21.032 1 22.52V51.6114C1 54.4573 3.33587 56.7653 6.21611 56.7653H18.3305C19.7227 56.7653 20.8516 55.6498 20.8516 54.2743V36.3041C20.8516 34.6508 22.208 33.3127 23.8791 33.3127H30.9603C32.4729 33.3127 33.7 34.5251 33.7 36.0197V54.2192C33.7 55.6256 34.8534 56.7675 36.279 56.7675H48.8553C51.702 56.7675 54.0067 54.4837 54 51.6709L53.9286 22.6897L53.9308 22.6919Z" fill="black" stroke="black" stroke-linecap="round" stroke-linejoin="round"/>
</svg>
