<svg width="43" height="51" viewBox="0 0 43 51" fill="none" xmlns="http://www.w3.org/2000/svg">
<path d="M21.4119 24.9189C14.5418 24.9189 8.95244 19.3295 8.95244 12.4594C8.95244 5.58935 14.5418 0 21.4119 0C28.282 0 33.8713 5.58935 33.8713 12.4594C33.8713 19.3295 28.282 24.9189 21.4119 24.9189ZM21.4119 3.38521C16.4074 3.38521 12.3376 7.45685 12.3376 12.4594C12.3376 17.462 16.4093 21.5337 21.4119 21.5337C26.4145 21.5337 30.4861 17.462 30.4861 12.4594C30.4861 7.45685 26.4145 3.38521 21.4119 3.38521Z" fill="black"/>
<path d="M5.96216 51C1.66107 51 0.557115 49.3601 0.387855 47.9797C-1.02265 36.391 1.68176 30.5722 4.19621 27.7305C6.15023 25.5245 8.73427 24.3096 11.4744 24.3096C14.2145 24.3096 15.9372 25.06 17.3759 25.7201C18.5307 26.2504 19.4428 26.6698 20.9774 26.6698C23.1007 26.6698 24.3777 26.2109 25.8559 25.6806C27.4432 25.1107 29.243 24.4638 32.0828 24.4638C34.9226 24.4638 37.2509 25.5959 39.0902 27.738C41.5049 30.5496 44.0062 36.3835 42.2045 48.1978C41.9281 50.0127 40.1904 50.9342 37.0402 50.9361L22.3202 50.9399L6.02422 51C6.00353 51 5.98285 51 5.96216 51ZM3.71852 47.312C3.99686 47.4343 4.68519 47.6148 5.96216 47.6148C5.97909 47.6148 5.99601 47.6148 6.01294 47.6148L22.3146 47.5546L37.0402 47.5509C38.1235 47.5509 38.6651 47.4324 38.9096 47.3515C40.5044 36.4907 38.1066 31.7871 36.5249 29.9441C35.3307 28.5542 33.8374 27.849 32.0847 27.849C29.8354 27.849 28.5227 28.321 27.0031 28.8664C25.4515 29.4231 23.6931 30.0569 20.9793 30.0569C18.7056 30.0569 17.2481 29.3874 15.9636 28.7968C14.6772 28.2063 13.5657 27.6948 11.4763 27.6948C9.69529 27.6948 8.05535 28.4828 6.73324 29.976C3.85957 33.2202 2.79135 39.3719 3.71852 47.3139V47.312Z" fill="black"/>
</svg>
