<svg width="30" height="30" viewBox="0 0 30 30" fill="none" xmlns="http://www.w3.org/2000/svg">
<path d="M17.5753 14.1941L22.9805 13.0315C23.7001 12.8768 24.1584 12.1677 24.0036 11.4481C23.8489 10.7285 23.1398 10.2702 22.4202 10.4251L17.4868 11.4863H12.6539L7.72052 10.4251C7.00089 10.2704 6.2918 10.7283 6.13706 11.4483C5.98231 12.1679 6.44019 12.877 7.16021 13.0317L12.5654 14.1943V18.5322L10.4037 24.7439C10.1616 25.4393 10.5292 26.1991 11.2246 26.4411C11.9199 26.6832 12.6797 26.3156 12.9218 25.6201L14.9136 19.8965H15.2277L17.2195 25.6201C17.4616 26.3154 18.2214 26.6828 18.9167 26.4411C19.6121 26.1991 19.9795 25.4393 19.7378 24.7439L17.5761 18.5322V14.1941H17.5753Z" stroke="white" stroke-linecap="round" stroke-linejoin="round"/>
<path d="M16.8171 8.84539C17.7826 7.87987 17.7826 6.31446 16.8171 5.34895C15.8516 4.38343 14.2862 4.38343 13.3207 5.34895C12.3552 6.31446 12.3552 7.87987 13.3207 8.84539C14.2862 9.8109 15.8516 9.8109 16.8171 8.84539Z" stroke="white" stroke-linecap="round" stroke-linejoin="round"/>
<path d="M15.0699 29.1399C22.8406 29.1399 29.1399 22.8406 29.1399 15.0699C29.1399 7.29933 22.8406 1 15.0699 1C7.29933 1 1 7.29933 1 15.0699C1 22.8406 7.29933 29.1399 15.0699 29.1399Z" stroke="white" stroke-linecap="round" stroke-linejoin="round"/>
</svg>
