<svg width="18" height="18" viewBox="0 0 18 18" fill="none" xmlns="http://www.w3.org/2000/svg">
<path d="M3.67723 16.5728L11.3272 9.37283L14.9272 12.9728M3.67723 16.5728H12.6772C14.1684 16.5728 15.3772 15.364 15.3772 13.8728V9.37283M3.67723 16.5728C2.18607 16.5728 0.977234 15.364 0.977234 13.8728V4.87283C0.977234 3.38166 2.18607 2.17283 3.67723 2.17283H9.52723M14.4772 6.51842L14.4772 3.97283M14.4772 3.97283L14.4772 1.42725M14.4772 3.97283L11.9317 3.97283M14.4772 3.97283L17.0228 3.97283M6.37723 6.22283C6.37723 6.96842 5.77282 7.57283 5.02723 7.57283C4.28165 7.57283 3.67723 6.96842 3.67723 6.22283C3.67723 5.47725 4.28165 4.87283 5.02723 4.87283C5.77282 4.87283 6.37723 5.47725 6.37723 6.22283Z" stroke="#181D7B" stroke-width="1.5" stroke-linecap="round" stroke-linejoin="round"/>
</svg>
