<svg width="17" height="16" viewBox="0 0 17 16" fill="none" xmlns="http://www.w3.org/2000/svg">
<path d="M16.3297 10.9646C16.2419 10.9092 16.1416 10.877 16.0381 10.8708C15.9345 10.8646 15.8311 10.8847 15.7374 10.9292C15.5029 11.0401 15.2442 11.0899 14.9853 11.074C14.7263 11.0581 14.4757 10.977 14.2565 10.8382C14.0374 10.6994 13.8569 10.5075 13.7318 10.2802C13.6067 10.053 13.5411 9.79782 13.5411 9.53843C13.5411 9.27904 13.6067 9.02385 13.7318 8.79661C13.8569 8.56936 14.0374 8.37743 14.2565 8.23866C14.4757 8.09988 14.7263 8.01876 14.9853 8.00285C15.2442 7.98694 15.5029 8.03675 15.7374 8.14765C15.8312 8.19217 15.9347 8.21223 16.0384 8.20596C16.142 8.19968 16.2424 8.16728 16.3302 8.11177C16.4179 8.05626 16.4902 7.97944 16.5403 7.88847C16.5904 7.7975 16.6166 7.69534 16.6166 7.59149V4.30763C16.6166 3.98121 16.4869 3.66815 16.2561 3.43734C16.0253 3.20652 15.7122 3.07685 15.3858 3.07685H12.5997C12.6111 2.97469 12.6168 2.87196 12.6166 2.76916C12.616 2.39094 12.5382 2.01683 12.388 1.66974C12.2377 1.32266 12.0181 1.00992 11.7427 0.750687C11.3614 0.39254 10.8864 0.149736 10.3728 0.0503909C9.85915 -0.0489543 9.32789 -0.000776425 8.84051 0.189346C8.35313 0.379468 7.92958 0.703756 7.61889 1.12466C7.30821 1.54556 7.1231 2.04586 7.08501 2.56762C7.07319 2.73734 7.07679 2.90778 7.09578 3.07685H4.30884C3.98242 3.07685 3.66937 3.20652 3.43855 3.43734C3.20774 3.66815 3.07807 3.98121 3.07807 4.30763V6.7861C2.9759 6.77465 2.87317 6.769 2.77037 6.76918C2.39216 6.76979 2.01806 6.84761 1.67098 6.99787C1.32391 7.14813 1.01116 7.36767 0.7519 7.64303C0.490782 7.91886 0.289719 8.24585 0.161419 8.60334C0.0331195 8.96083 -0.0196278 9.34105 0.00651106 9.71997C0.0506098 10.3872 0.33411 11.016 0.804877 11.4909C1.27564 11.9658 1.90203 12.2547 2.56883 12.3046C2.73854 12.3168 2.90902 12.3132 3.07807 12.2938V14.7692C3.07807 15.0956 3.20774 15.4087 3.43855 15.6395C3.66937 15.8703 3.98242 16 4.30884 16H15.3858C15.7122 16 16.0253 15.8703 16.2561 15.6395C16.4869 15.4087 16.6166 15.0956 16.6166 14.7692V11.4854C16.6167 11.3814 16.5904 11.2791 16.5402 11.188C16.49 11.097 16.4176 11.0201 16.3297 10.9646ZM15.3858 14.7692H4.30884V11.4854C4.30888 11.3815 4.28263 11.2794 4.23255 11.1884C4.18247 11.0974 4.11019 11.0206 4.02243 10.9651C3.93467 10.9096 3.83429 10.8772 3.73063 10.8709C3.62698 10.8646 3.52342 10.8847 3.42961 10.9292C3.19512 11.0401 2.93639 11.0899 2.67749 11.074C2.41859 11.0581 2.16791 10.977 1.94877 10.8382C1.72962 10.6994 1.54912 10.5075 1.42405 10.2802C1.29898 10.053 1.23339 9.79782 1.23339 9.53843C1.23339 9.27904 1.29898 9.02385 1.42405 8.79661C1.54912 8.56936 1.72962 8.37743 1.94877 8.23866C2.16791 8.09988 2.41859 8.01876 2.67749 8.00285C2.93639 7.98694 3.19512 8.03675 3.42961 8.14765C3.52342 8.19217 3.62698 8.21223 3.73063 8.20596C3.83429 8.19968 3.93467 8.16728 4.02243 8.11177C4.11019 8.05626 4.18247 7.97944 4.23255 7.88847C4.28263 7.7975 4.30888 7.69534 4.30884 7.59149V4.30763H7.9004C8.00424 4.30766 8.10641 4.28142 8.19738 4.23134C8.28835 4.18126 8.36516 4.10897 8.42068 4.02121C8.47619 3.93345 8.50859 3.83307 8.51486 3.72942C8.52114 3.62576 8.50108 3.52221 8.45656 3.42839C8.34566 3.1939 8.29585 2.93518 8.31176 2.67628C8.32767 2.41738 8.40878 2.1667 8.54756 1.94755C8.68634 1.72841 8.87827 1.54791 9.10552 1.42284C9.33276 1.29776 9.58794 1.23218 9.84733 1.23218C10.1067 1.23218 10.3619 1.29776 10.5892 1.42284C10.8164 1.54791 11.0083 1.72841 11.1471 1.94755C11.2859 2.1667 11.367 2.41738 11.3829 2.67628C11.3988 2.93518 11.349 3.1939 11.2381 3.42839C11.1936 3.52221 11.1735 3.62576 11.1798 3.72942C11.1861 3.83307 11.2185 3.93345 11.274 4.02121C11.3295 4.10897 11.4063 4.18126 11.4973 4.23134C11.5883 4.28142 11.6904 4.30766 11.7943 4.30763H15.3858V6.78687C15.2168 6.76751 15.0463 6.7639 14.8766 6.7761C14.1604 6.82682 13.4918 7.15374 13.012 7.68791C12.5322 8.22207 12.2786 8.92172 12.3048 9.63926C12.3309 10.3568 12.6347 11.0361 13.1522 11.534C13.6696 12.0318 14.3601 12.3092 15.0781 12.3077C15.1809 12.3079 15.2837 12.3022 15.3858 12.2907V14.7692Z" fill="white"/>
</svg>
