<svg width="53" height="56" viewBox="0 0 53 56" fill="none" xmlns="http://www.w3.org/2000/svg">
<path d="M46.1798 55.9979H34.532C32.1909 55.9979 30.2858 54.0928 30.2858 51.7496V34.6902C30.2858 34.3162 29.982 34.0125 29.608 34.0125H23.0496C22.5289 34.0125 22.1053 34.4361 22.1053 34.9568V51.8013C22.1053 54.1135 20.2229 55.9959 17.9107 55.9959H6.69068C3.00027 55.9959 0 52.9935 0 49.3052V22.0362C0 20.0546 0.896774 18.2197 2.46096 17.0027L22.5041 1.40417C24.932 -0.486492 28.3083 -0.46583 30.7156 1.45376L50.2504 17.0357C51.829 18.2941 52.7362 20.1745 52.7424 22.1932L52.8085 49.3589C52.8126 51.1318 52.1266 52.7993 50.8744 54.0535C49.6222 55.3078 47.9568 56 46.1839 56L46.1798 55.9979ZM23.0475 30.2952H29.606C32.0297 30.2952 34.0031 32.2665 34.0031 34.6923V51.7517C34.0031 52.043 34.2407 52.2807 34.53 52.2807H46.1777C46.9546 52.2807 47.6861 51.9769 48.2337 51.4273C48.7833 50.8776 49.0829 50.1462 49.0809 49.3692L49.0147 22.2036C49.0127 21.3192 48.6139 20.4947 47.9237 19.9451L28.3889 4.36312C27.333 3.52007 25.8494 3.5118 24.7812 4.34245L4.73803 19.941C4.08508 20.4493 3.71108 21.2138 3.71108 22.0403V49.3093C3.71108 50.9479 5.04384 52.2807 6.68242 52.2807H17.9024C18.1649 52.2807 18.3777 52.0678 18.3777 51.8054V34.9609C18.3777 32.3884 20.4709 30.2973 23.0413 30.2973L23.0475 30.2952Z" fill="black"/>
</svg>
