<svg width="52" height="57" viewBox="0 0 52 57" fill="none" xmlns="http://www.w3.org/2000/svg">
<path d="M16.8389 2.85571H45.6761C48.0638 2.85571 50 4.8433 50 7.28973V50.1241C50 52.5726 48.0618 54.5581 45.6761 54.5581H16.8389C15.5902 54.5581 14.5773 53.5195 14.5773 52.2389V5.17492C14.5773 3.89435 15.5902 2.85571 16.8389 2.85571Z" fill="black" stroke="white" stroke-width="3.80727" stroke-linecap="round" stroke-linejoin="round"/>
<path d="M36.0827 2.85571H9.63724C7.15826 2.85571 5.14865 4.91653 5.14865 7.45867V49.9573C5.14865 52.4994 7.15826 54.5602 9.63724 54.5602H36.0827C38.5617 54.5602 40.5713 52.4994 40.5713 49.9573V7.45867C40.5713 4.91653 38.5617 2.85571 36.0827 2.85571Z" fill="black" stroke="white" stroke-width="3.80727" stroke-linecap="round" stroke-linejoin="round"/>
<path d="M1.92307 28.6841H8.52274" stroke="black" stroke-width="3.80727" stroke-linecap="round" stroke-linejoin="round"/>
<path d="M1.92307 20.7129H8.52274" stroke="black" stroke-width="3.80727" stroke-linecap="round" stroke-linejoin="round"/>
<path d="M1.92307 36.6572H8.52274" stroke="black" stroke-width="3.80727" stroke-linecap="round" stroke-linejoin="round"/>
<path d="M1.92307 44.6287H8.52274" stroke="black" stroke-width="3.80727" stroke-linecap="round" stroke-linejoin="round"/>
<path d="M1.92307 12.7395H8.52274" stroke="black" stroke-width="3.80727" stroke-linecap="round" stroke-linejoin="round"/>
</svg>
