<svg width="24" height="24" viewBox="0 0 24 24" fill="none" xmlns="http://www.w3.org/2000/svg">
<path d="M12 0C5.38371 0 0 5.38371 0 12C0 18.6163 5.38371 24 12 24C18.6163 24 24 18.6163 24 12C24 5.38371 18.6163 0 12 0ZM13.4976 1.23576C15.7967 1.55508 17.8627 2.59287 19.4721 4.11602C18.7153 4.70676 17.9234 5.2049 17.1123 5.60724C16.2342 4.033 15.0176 2.56094 13.5008 1.23576H13.4976ZM16.0617 6.07025C14.8994 6.5173 13.702 6.77914 12.4886 6.83661V1.86163C13.9989 3.13252 15.1996 4.55349 16.0617 6.07025ZM12.4886 17.6072C13.5902 17.6583 14.6823 17.8787 15.7456 18.2523C14.9154 19.571 13.8233 20.8068 12.4886 21.9308V17.6072ZM7.67004 17.2336C6.90367 15.7296 6.45982 14.1426 6.3768 12.5141H11.3582V16.48C10.1064 16.5407 8.87068 16.7962 7.67004 17.2336ZM11.3582 17.6136V21.8286C10.0809 20.727 9.03672 19.52 8.23523 18.2363C9.25386 17.8818 10.3012 17.6743 11.3582 17.6168V17.6136ZM6.3736 11.3869C6.44705 9.92762 6.80468 8.50027 7.42736 7.13678C8.70144 7.62533 10.0202 7.90953 11.355 7.97339V11.3901H6.37041L6.3736 11.3869ZM7.94465 6.12134C8.77488 4.65886 9.92123 3.2826 11.355 2.04683V6.83981C10.199 6.77914 9.05269 6.53646 7.94465 6.12134ZM6.89409 5.67429C6.06067 5.27195 5.2496 4.77062 4.47366 4.1735C6.10538 2.60564 8.21927 1.54231 10.5726 1.23257C9.02395 2.5769 7.78499 4.07451 6.89409 5.67429ZM6.38638 6.68334C5.70303 8.18733 5.31666 9.76796 5.24321 11.3869H1.14955C1.28685 8.96008 2.22246 6.74401 3.69771 5.00053C4.55668 5.6711 5.45716 6.2363 6.38638 6.68334ZM5.24641 12.5173C5.32943 14.2991 5.79564 16.033 6.61629 17.6711C5.69345 18.099 4.79617 18.6386 3.9372 19.2837C2.30229 17.4731 1.2645 15.1134 1.14316 12.5173H5.24641ZM7.16871 18.6642C8.06599 20.1522 9.26663 21.5444 10.7451 22.7994C8.45556 22.5343 6.37999 21.5572 4.74827 20.0915C5.52741 19.52 6.33528 19.041 7.16871 18.6642ZM16.8153 18.6897C17.6424 19.0697 18.447 19.5551 19.2166 20.1267C17.5785 21.5828 15.4997 22.5535 13.207 22.8089C14.6951 21.5604 15.9053 20.1746 16.8121 18.6897H16.8153ZM16.3172 17.2592C15.0718 16.7994 13.7882 16.5375 12.4886 16.48V12.5205H17.6392C17.5498 14.1586 17.0963 15.752 16.3172 17.2592ZM12.4886 11.3901V7.97339C13.884 7.91272 15.2571 7.61256 16.5822 7.08568C17.2145 8.46514 17.5753 9.90846 17.6424 11.3869H12.4886V11.3901ZM17.6232 6.62586C18.5333 6.17562 19.4146 5.61362 20.2576 4.94625C21.7616 6.7025 22.7163 8.93773 22.8536 11.3901H18.7728C18.7057 9.7488 18.3161 8.14902 17.6232 6.62586ZM20.0341 19.322C19.1815 18.6738 18.2874 18.1309 17.3678 17.6998C18.2012 16.0585 18.6801 14.3151 18.7696 12.5205H22.8568C22.7355 15.1325 21.6881 17.5082 20.0341 19.322Z" fill="white"/>
</svg>
