<svg width="14" height="21" viewBox="0 0 14 21" fill="none" xmlns="http://www.w3.org/2000/svg">
<path d="M9.55117 16.6046H4.44883C4.33109 16.6046 4.21876 16.5585 4.13577 16.4764C4.052 16.3946 4.00607 16.2836 4.00607 16.1675L4.00684 15.0398C4.00684 14.4137 3.22014 13.4708 2.64613 12.782C2.51643 12.626 2.39214 12.4765 2.27942 12.3362C1.8135 11.7539 1.4132 11.194 1.05537 10.623C0.711426 10.0749 0.445848 9.48235 0.267895 8.86313C0.0899416 8.24428 0 7.60109 0 6.95144C0 3.11856 3.13985 0 7 0C10.8602 0 14 3.11856 14 6.95144C14 7.60262 13.9101 8.2458 13.7329 8.86313C13.5557 9.47969 13.2901 10.0719 12.9454 10.623C12.5868 11.1932 12.1865 11.7535 11.7214 12.3358C11.609 12.4773 11.4836 12.6272 11.3531 12.7835C10.7791 13.4719 9.99316 14.4145 9.99316 15.0402L9.99393 16.1679C9.99393 16.2839 9.948 16.395 9.86423 16.4768C9.78124 16.5589 9.66891 16.605 9.55117 16.605V16.6046ZM4.89158 15.7324H9.10841L9.10764 15.0398C9.10764 14.1018 9.93758 13.1068 10.6691 12.2297C10.7953 12.0779 10.9161 11.933 11.0261 11.7961C11.4704 11.24 11.8518 10.7063 12.1923 10.1643C12.4942 9.68204 12.7258 9.16437 12.8806 8.6254C13.0361 8.08567 13.1149 7.52274 13.1149 6.95144C13.1149 3.59934 10.3718 0.872544 7.00039 0.872544C3.62893 0.872544 0.885905 3.59972 0.885905 6.95144C0.885905 7.52046 0.964652 8.08339 1.12099 8.6254C1.27655 9.16665 1.50816 9.6847 1.80925 10.1643C2.14972 10.7063 2.5311 11.2404 2.97541 11.7961C3.08426 11.9322 3.20547 12.0772 3.3317 12.2285C4.0632 13.1064 4.89313 14.1018 4.89313 15.0402L4.89236 15.7328L4.89158 15.7324Z" fill="white"/>
<path d="M11.5928 8.25638C11.5762 8.25638 11.5592 8.25562 11.5426 8.25372C11.2998 8.22671 11.1249 8.01105 11.152 7.77142C11.438 5.25154 9.79395 3.44446 8.54828 3.15881C8.3105 3.10442 8.16188 2.87011 8.21708 2.63543C8.27228 2.40075 8.512 2.25127 8.74862 2.30947C10.3479 2.67613 12.3795 4.81223 12.0321 7.86841C12.007 8.0913 11.8151 8.256 11.5928 8.256V8.25638Z" fill="white"/>
<path d="M8.8691 19.5234H5.13093C4.8862 19.5234 4.68817 19.3283 4.68817 19.0872C4.68817 18.846 4.8862 18.6509 5.13093 18.6509H8.8691C9.11384 18.6509 9.31186 18.846 9.31186 19.0872C9.31186 19.3283 9.11384 19.5234 8.8691 19.5234Z" fill="white"/>
<path d="M9.47322 18.1145H4.52644C4.28171 18.1145 4.08368 17.9194 4.08368 17.6782C4.08368 17.4371 4.28171 17.2419 4.52644 17.2419H9.47322C9.71796 17.2419 9.91598 17.4371 9.91598 17.6782C9.91598 17.9194 9.71796 18.1145 9.47322 18.1145Z" fill="white"/>
<path d="M7.36483 20.9998H6.63488C6.30175 20.9998 6.03192 20.734 6.03192 20.4057V20.2464C6.03192 20.1809 6.08596 20.1277 6.15236 20.1277H7.84696C7.91336 20.1277 7.9674 20.1809 7.9674 20.2464V20.4057C7.9674 20.734 7.69758 20.9998 7.36445 20.9998H7.36483Z" fill="white"/>
</svg>
