<svg width="110" height="110" viewBox="0 0 110 110" fill="none" xmlns="http://www.w3.org/2000/svg">
<path d="M55 109C84.8234 109 109 84.8234 109 55C109 25.1766 84.8234 1 55 1C25.1766 1 1 25.1766 1 55C1 84.8234 25.1766 109 55 109Z" fill="white" stroke="#525585" stroke-width="1.30057" stroke-miterlimit="10"/>
<path d="M101.312 82.4162C90.579 64.1634 85.1758 47.7222 82.7428 39.2751C82.469 39.3173 81.1735 39.5279 79.3619 39.6754C78.909 40.7497 78.3402 41.3079 77.445 41.3079C77.2449 41.3079 77.0447 41.2658 76.8552 41.2026C75.0014 46.1845 71.294 49.4706 66.1542 51.1347V51.9246C67.9131 52.2512 69.6931 52.862 71.3046 53.9258C72.8212 53.1464 76.3285 51.9352 79.6884 55.116C80.531 55.9165 81.0998 56.9592 81.3315 58.0967C82.0582 61.5935 83.7961 70.8305 84.1647 80.078C85.9342 85.2599 87.6299 90.9896 88.9149 96.8562C93.8441 92.8223 98.0465 87.9457 101.301 82.4372" fill="#717769"/>
<path d="M36.452 105.756C34.7984 104.377 33.7346 102.291 33.7346 99.9634C33.7346 96.6352 35.8938 93.8125 38.8955 92.8119C39.8329 86.4819 40.665 78.5509 40.7493 69.9459C40.7493 69.9459 41.4023 53.5363 50.555 55.1161C52.019 53.768 53.799 52.799 55.9371 52.4198V52.3882C55.8634 52.3882 55.7896 52.3882 55.7159 52.3882C49.1436 52.1565 42.1079 45.9845 42.5714 33.1243C42.9716 21.9389 49.5439 16.2408 54.8101 15.0822C54.789 13.1548 54.9049 11.1325 55.2314 9.0155C41.0758 9.38414 36.4415 17.7996 34.0085 24.0875C31.5649 30.3754 38.2741 44.8891 38.6428 49.6498C39.0114 54.4105 29.4374 80.7522 29.4374 80.7522C27.057 87.9669 25.7931 94.4549 25.3718 100.3C28.8054 102.533 32.5234 104.387 36.4415 105.809C36.4415 105.798 36.4415 105.788 36.4415 105.777L36.452 105.756Z" fill="#717769"/>
<path d="M36.442 105.799C36.442 105.799 36.5179 105.821 36.5505 105.843C36.5179 105.821 36.4854 105.788 36.4528 105.767C36.4528 105.777 36.4528 105.788 36.4528 105.799H36.442Z" fill="#C18A9C"/>
<path d="M45.2265 106.377C44.2574 106.978 43.1408 107.347 41.9505 107.452C43.5622 107.842 45.1949 108.179 46.8592 108.421C46.8802 107.821 46.9013 107.199 46.9118 106.557C46.322 106.514 45.7637 106.451 45.237 106.377H45.2265Z" fill="#C18A9C"/>
<path d="M43.4039 92.7274C44.1306 92.264 44.9943 91.8638 46.0265 91.5583C45.4998 87.1452 44.7204 82.195 43.5935 76.6338C43.5935 76.6338 43.5303 61.5829 50.5449 55.116C41.4027 53.5361 40.7392 69.9457 40.7392 69.9457C40.6654 78.5507 39.8334 86.4922 38.8854 92.8117C39.6332 92.5589 40.4337 92.422 41.2658 92.422C42.003 92.422 42.7193 92.5379 43.3933 92.7274H43.4039Z" fill="#C18A9C"/>
<path d="M76.8125 103.039C76.8125 103.039 57.4643 107.347 46.9108 106.567C46.9108 107.21 46.8792 107.831 46.8581 108.431C49.4491 108.811 52.0928 109.011 54.7891 109.011C67.744 109.011 79.6247 104.45 88.9248 96.8351C87.6399 90.9685 85.9442 85.2283 84.1747 80.0569C84.5855 90.4208 83.2584 100.774 76.8125 103.039Z" fill="#B1ECF2"/>
<path d="M43.5933 76.6337C44.7203 82.1948 45.4997 87.1556 46.0263 91.5582C46.9216 91.2949 47.9327 91.0948 49.0913 90.9789C49.0913 90.9789 64.7531 90.4944 67.4073 84.4699C67.4073 84.4699 64.2791 62.0673 70.5354 54.3575C70.5354 54.3575 70.8198 54.1469 71.3043 53.9046C69.6928 52.8408 67.9128 52.2299 66.1539 51.9034V55.6003C66.1539 55.6003 61.0351 59.2446 55.9269 55.5055V52.409C53.7782 52.7987 52.0088 53.7572 50.5448 55.1053C43.5301 61.5723 43.5933 76.6232 43.5933 76.6232V76.6337Z" fill="#B1ECF2"/>
<path d="M66.1658 55.6114V51.1241C63.2058 52.0827 59.7719 52.504 55.9377 52.3882V55.5272C61.057 59.256 66.1658 55.622 66.1658 55.622V55.6114Z" fill="#E2DECF"/>
<path d="M65.8486 37.9164C68.3975 39.412 72.1155 39.8228 75.4227 39.8333C74.9171 38.9486 74.6011 37.7268 74.6011 36.3787C74.6011 33.6613 75.8756 31.46 77.4554 31.46C79.0353 31.46 80.889 33.7245 80.3097 36.3787C80.0043 37.7795 79.7199 38.8643 79.3723 39.6648C81.1945 39.5174 82.4899 39.3067 82.7533 39.2646C82.7849 39.2646 82.8059 39.2646 82.8059 39.2646C85.7339 24.2558 84.1751 20.264 79.1406 13.8708C66.3226 2.49571 55.2214 9.01531 55.2214 9.01531C54.8949 11.1323 54.779 13.1546 54.8001 15.082C54.9475 26.8995 61.0142 35.1043 65.8381 37.927L65.8486 37.9164Z" fill="#A0A59B"/>
<path d="M76.8658 41.1921C77.0553 41.2553 77.2555 41.2974 77.4556 41.2974C78.3508 41.2974 78.9196 40.7392 79.3725 39.6649C79.7095 38.8644 79.9939 37.7796 80.3099 36.3787C80.8997 33.7246 79.0355 31.4601 77.4556 31.4601C75.8757 31.4601 74.6013 33.6614 74.6013 36.3787C74.6013 37.7269 74.9173 38.9381 75.4228 39.8334C72.1156 39.8334 68.3871 39.4121 65.8488 37.9165C61.0249 35.0832 54.9582 26.8784 54.8108 15.0715C49.534 16.2301 42.9723 21.9387 42.572 33.1137C42.1086 45.9633 49.1443 52.1353 55.7166 52.3776C55.7903 52.3776 55.864 52.3776 55.9377 52.3776C59.7716 52.4934 63.2051 52.0721 66.1648 51.1137C71.3046 49.4601 75.012 46.1739 76.8658 41.1815V41.1921Z" fill="#F9F5DE"/>
<path d="M67.4071 84.4804C64.753 90.505 49.0912 90.9895 49.0912 90.9895C47.9326 91.0948 46.9215 91.2949 46.0262 91.5688C44.994 91.8742 44.1304 92.2745 43.4036 92.7379C46.5318 93.6542 48.8173 96.5401 48.8173 99.9737C48.8173 102.691 47.3744 105.061 45.2257 106.388C45.7524 106.462 46.3106 106.525 46.9004 106.567C57.4539 107.357 76.8021 103.039 76.8021 103.039C83.248 100.774 84.5751 90.4102 84.1643 80.0568C83.7957 70.8093 82.0578 61.5723 81.3311 58.0755C81.0993 56.938 80.5306 55.8953 79.688 55.0948C76.3281 51.914 72.8208 53.1252 71.3041 53.9047C70.8197 54.1574 70.5353 54.3575 70.5353 54.3575C64.2685 62.0673 67.4071 84.4699 67.4071 84.4699V84.4804Z" fill="#DD92A8"/>
<path d="M48.8189 99.964C48.8189 96.5406 46.5331 93.6544 43.4047 92.7275C42.7306 92.5273 42.0143 92.422 41.2769 92.422C40.4448 92.422 39.6442 92.5589 38.8964 92.8117C35.8943 93.8124 33.7349 96.6354 33.7349 99.964C33.7349 102.292 34.7883 104.378 36.4526 105.757C36.4842 105.789 36.5158 105.81 36.5474 105.831C38.3065 106.463 40.1077 107.011 41.9511 107.453C43.1414 107.348 44.2579 106.969 45.227 106.379C47.3758 105.052 48.8189 102.682 48.8189 99.964Z" fill="#F9F5DE"/>
</svg>
