<svg width="18" height="18" viewBox="0 0 18 18" fill="none" xmlns="http://www.w3.org/2000/svg">
<path d="M3.2984 8.38291C3.49777 9.75278 4.18369 11.0051 5.23066 11.9107C6.27763 12.8163 7.61567 13.3147 8.99998 13.3147M8.99998 13.3147C10.3843 13.3147 11.7223 12.8163 12.7693 11.9107C13.8163 11.0051 14.5022 9.75278 14.7016 8.38291M8.99998 13.3147V16.2M9.0008 1.80005C8.34609 1.80005 7.7182 2.06013 7.25526 2.52308C6.79231 2.98602 6.53223 3.61391 6.53223 4.26862V7.56005C6.53223 8.21475 6.79231 8.84265 7.25526 9.30559C7.7182 9.76854 8.34609 10.0286 9.0008 10.0286C9.65551 10.0286 10.2834 9.76854 10.7463 9.30559C11.2093 8.84265 11.4694 8.21475 11.4694 7.56005V4.26862C11.4694 3.61391 11.2093 2.98602 10.7463 2.52308C10.2834 2.06013 9.65551 1.80005 9.0008 1.80005Z" stroke="#181D7B" stroke-width="1.5" stroke-linecap="round" stroke-linejoin="round"/>
</svg>
