<svg width="24" height="30" viewBox="0 0 24 30" fill="none" xmlns="http://www.w3.org/2000/svg">
<path d="M23.4701 22.009C23.2824 21.694 23.0861 21.382 22.8782 21.0513C21.993 19.6433 21.0775 18.1873 21.0002 16.7677L20.7295 11.8088C20.7208 8.08648 18.3744 4.90421 15.0841 3.65224V3.10114C15.0841 1.39119 13.6929 0 11.9829 0C10.273 0 8.8818 1.39119 8.8818 3.10114V3.65224C5.59152 4.90421 3.24551 8.08648 3.23639 11.8088L2.9594 16.8892C2.88691 18.2175 2.01514 19.59 1.17264 20.9173C0.95614 21.2582 0.752118 21.5798 0.558657 21.9043L0.297028 22.3431C-0.090854 22.994 -0.0994946 23.776 0.274946 24.4351C0.649387 25.0942 1.3253 25.4874 2.08282 25.4874H7.74648C8.10748 27.4984 9.86975 29.0288 11.9829 29.0288C14.0961 29.0288 15.8584 27.4979 16.2189 25.4874H21.8826C22.6406 25.4874 23.3165 25.0938 23.6905 24.4351C24.0649 23.776 24.0567 22.994 23.6684 22.3431L23.4691 22.009H23.4701ZM10.4074 3.10162C10.4074 2.23272 11.1145 1.52561 11.9834 1.52561C12.8523 1.52561 13.5594 2.23272 13.5594 3.10162V3.22691C13.0482 3.1333 12.5211 3.08434 11.9834 3.08434C11.4458 3.08434 10.9187 3.1333 10.4074 3.22691V3.10162ZM11.9834 27.5041C10.7156 27.5041 9.64365 26.6501 9.31145 25.4874H14.6554C14.3232 26.6501 13.2517 27.5041 11.9834 27.5041ZM22.3655 23.6819C22.3175 23.7664 22.1744 23.9628 21.8831 23.9628H2.0833C1.79191 23.9628 1.64886 23.7664 1.60085 23.6819C1.55284 23.5974 1.45731 23.3742 1.60661 23.1241L1.86824 22.6854C2.05066 22.3791 2.2494 22.0666 2.45966 21.7353C3.3636 20.3125 4.38803 18.6995 4.48212 16.9727L4.76055 11.8722L4.76151 11.8304C4.76151 7.84837 8.00091 4.60898 11.9829 4.60898C15.965 4.60898 19.2044 7.84837 19.2044 11.8304V11.851L19.477 16.8508C19.5759 18.6644 20.6445 20.3638 21.5869 21.8625C21.7899 22.1851 21.9815 22.49 22.1596 22.789L22.3588 23.1232C22.5081 23.3733 22.4126 23.5965 22.3645 23.681L22.3655 23.6819Z" fill="white"/>
<path d="M12.6094 5.7251C8.9682 5.7251 6.0058 8.6875 6.0058 12.3287C6.0058 12.7497 6.34711 13.091 6.76812 13.091C7.18913 13.091 7.53044 12.7497 7.53044 12.3287C7.53044 9.52807 9.80877 7.24974 12.6094 7.24974C13.0304 7.24974 13.3717 6.90843 13.3717 6.48742C13.3717 6.06641 13.0304 5.7251 12.6094 5.7251Z" fill="white"/>
</svg>
