<svg width="16" height="16" viewBox="0 0 16 16" fill="none" xmlns="http://www.w3.org/2000/svg">
<path d="M14.082 0H1.28185C0.942369 0 0.61679 0.134859 0.37674 0.374909C0.13669 0.614959 0.00183105 0.940538 0.00183105 1.28002V5.98249C0.00183105 13.1514 6.06753 15.5298 7.28194 15.9338C7.54132 16.0221 7.82258 16.0221 8.08196 15.9338C9.29798 15.5298 15.3621 13.1514 15.3621 5.98249V1.28002C15.3621 0.940538 15.2272 0.614959 14.9872 0.374909C14.7471 0.134859 14.4215 0 14.082 0ZM14.082 5.98329C14.082 12.257 8.77397 14.353 7.68195 14.7178C6.59953 14.357 1.28185 12.2626 1.28185 5.98329V1.28002H14.082V5.98329ZM4.02909 8.13293C3.909 8.01283 3.84153 7.84996 3.84153 7.68012C3.84153 7.51028 3.909 7.3474 4.02909 7.22731C4.14919 7.10722 4.31207 7.03975 4.4819 7.03975C4.65174 7.03975 4.81462 7.10722 4.93471 7.22731L6.40193 8.69453L10.4292 4.66727C10.4887 4.60781 10.5592 4.56064 10.6369 4.52846C10.7146 4.49628 10.7979 4.47971 10.882 4.47971C10.9661 4.47971 11.0494 4.49628 11.1271 4.52846C11.2048 4.56064 11.2753 4.60781 11.3348 4.66727C11.3943 4.72674 11.4414 4.79733 11.4736 4.87502C11.5058 4.95271 11.5224 5.03599 11.5224 5.12008C11.5224 5.20417 11.5058 5.28744 11.4736 5.36514C11.4414 5.44283 11.3943 5.51342 11.3348 5.57289L6.85474 10.053C6.7953 10.1125 6.72471 10.1597 6.64702 10.1919C6.56932 10.2241 6.48604 10.2407 6.40193 10.2407C6.31782 10.2407 6.23454 10.2241 6.15685 10.1919C6.07915 10.1597 6.00856 10.1125 5.94912 10.053L4.02909 8.13293Z" fill="white"/>
</svg>
