<svg width="44" height="53" viewBox="0 0 44 53" fill="none" xmlns="http://www.w3.org/2000/svg">
<path d="M22.0006 24.0637C28.3358 24.0637 33.4714 18.9007 33.4714 12.5318C33.4714 6.16298 28.3358 1 22.0006 1C15.6654 1 10.5298 6.16298 10.5298 12.5318C10.5298 18.9007 15.6654 24.0637 22.0006 24.0637Z" fill="black" stroke="black" stroke-miterlimit="10"/>
<path d="M33.3752 27.202C27.9995 27.202 26.7412 29.5668 21.5438 29.5668C17.3061 29.5668 16.4485 27.0369 11.4194 27.0369C5.48263 27.0369 -0.632466 33.5773 1.39722 50.3584C1.56753 51.7684 4.00395 52.006 5.60485 52L22.9724 51.9355L38.6548 51.9315C40.0554 51.9315 42.1872 51.7704 42.3736 50.5396C44.7719 34.7395 39.9652 27.2061 33.3732 27.2061L33.3752 27.202Z" fill="black" stroke="black" stroke-miterlimit="10"/>
</svg>
