<svg width="45" height="48" viewBox="0 0 45 48" fill="none" xmlns="http://www.w3.org/2000/svg">
<path d="M19.7276 1H25.256C26.2892 1 27.1266 1.83376 27.1266 2.86242V44.2796C27.1266 45.5231 26.1134 46.5319 24.8645 46.5319H20.1192C18.8703 46.5319 17.8571 45.5231 17.8571 44.2796V2.86242C17.8571 1.83376 18.6945 1 19.7276 1Z" fill="#020202" stroke="black" stroke-linecap="round" stroke-linejoin="round"/>
<path d="M3.14792 21.7737H8.12347C9.3089 21.7737 10.2696 22.732 10.2696 23.9104V44.4079C10.2696 45.6513 9.25633 46.6601 8.00746 46.6601H3.26211C2.01324 46.6601 1 45.6513 1 44.4079V23.9104C1 22.7302 1.96249 21.7737 3.1461 21.7737H3.14792Z" fill="black" stroke="black" stroke-linecap="round" stroke-linejoin="round"/>
<path d="M36.7442 11.3083H41.9844C43.0973 11.3083 44 12.2071 44 13.3151V44.4493C44 45.6567 43.0158 46.6366 41.8031 46.6366H36.9291C35.7165 46.6366 34.7322 45.6567 34.7322 44.4493V13.3151C34.7322 12.2071 35.6349 11.3083 36.7478 11.3083H36.7442Z" fill="black" stroke="black" stroke-linecap="round" stroke-linejoin="round"/>
</svg>
