<svg width="43" height="46" viewBox="0 0 43 46" fill="none" xmlns="http://www.w3.org/2000/svg">
<path d="M23.6968 45.5371H19.2863C17.2916 45.5371 15.6676 43.9131 15.6676 41.9184V3.25482C15.6676 1.46063 17.1282 0 18.9224 0H24.0607C25.8549 0 27.3155 1.46063 27.3155 3.25482V41.9184C27.3155 43.9131 25.6915 45.5371 23.6968 45.5371ZM18.9224 3.03244C18.7994 3.03244 18.7 3.13184 18.7 3.25482V41.9184C18.7 42.2419 18.9629 42.5047 19.2863 42.5047H23.6968C24.0203 42.5047 24.2831 42.2419 24.2831 41.9184V3.25482C24.2831 3.13184 24.1837 3.03244 24.0607 3.03244H18.9224Z" fill="black"/>
<path d="M8.02923 45.6583H3.61871C1.62404 45.6583 0 44.0343 0 42.0396V22.9049C0 20.9692 1.57518 19.394 3.51089 19.394H8.13536C10.0711 19.394 11.6463 20.9692 11.6463 22.9049V42.0396C11.6463 44.0343 10.0222 45.6583 8.02754 45.6583H8.02923ZM3.51089 22.4248C3.24639 22.4248 3.03244 22.6404 3.03244 22.9033V42.0379C3.03244 42.3614 3.29525 42.6242 3.61871 42.6242H8.02923C8.35269 42.6242 8.6155 42.3614 8.6155 42.0379V22.9033C8.6155 22.6388 8.39986 22.4248 8.13705 22.4248H3.51258H3.51089Z" fill="black"/>
<path d="M39.4386 45.635H34.9084C32.9458 45.635 31.3504 44.0379 31.3504 42.0769V13.0126C31.3504 11.1443 32.8716 9.62305 34.74 9.62305H39.6104C41.4787 9.62305 43 11.1426 43 13.0126V42.0769C43 44.0396 41.4029 45.635 39.4419 45.635H39.4386ZM34.7383 12.6555C34.5412 12.6555 34.3811 12.8155 34.3811 13.0126V42.0769C34.3811 42.3667 34.617 42.6025 34.9067 42.6025H39.4369C39.7266 42.6025 39.9625 42.3667 39.9625 42.0769V13.0126C39.9625 12.8155 39.8025 12.6555 39.6053 12.6555H34.7349H34.7383Z" fill="black"/>
</svg>
