<svg width="23" height="16" viewBox="0 0 23 16" fill="none" xmlns="http://www.w3.org/2000/svg">
<path d="M10.637 15.4492C10.5977 15.6065 10.5069 15.7461 10.3791 15.8459C10.2513 15.9457 10.0938 16 9.93164 16C9.87037 16.0003 9.80931 15.993 9.74985 15.9782L6.84123 15.251C6.76026 15.2307 6.68339 15.1966 6.614 15.1501L4.43253 13.6958C4.2721 13.5888 4.16076 13.4224 4.12301 13.2333C4.08525 13.0442 4.12417 12.8478 4.2312 12.6873C4.33824 12.5269 4.50462 12.4156 4.69374 12.3778C4.88287 12.3401 5.07924 12.379 5.23967 12.486L7.3157 13.8703L10.1025 14.5675C10.1956 14.5901 10.2834 14.6308 10.3607 14.6874C10.438 14.744 10.5034 14.8153 10.553 14.8972C10.6027 14.9792 10.6357 15.0701 10.6501 15.1648C10.6645 15.2595 10.66 15.3562 10.637 15.4492ZM22.6978 6.6815C22.6381 6.86273 22.5431 7.03034 22.4183 7.17465C22.2935 7.31896 22.1413 7.43711 21.9706 7.52228L19.8182 8.59847L14.8118 13.6058C14.7229 13.6946 14.6126 13.7588 14.4915 13.7923C14.3704 13.8257 14.2428 13.8273 14.121 13.7967L8.30372 12.3424C8.21526 12.3202 8.13172 12.2817 8.0574 12.2288L3.01094 8.62573L0.80403 7.52228C0.459118 7.34985 0.196802 7.04751 0.0747603 6.68173C-0.0472817 6.31594 -0.0190576 5.91666 0.153226 5.57168L2.41195 1.05514C2.58437 0.710231 2.88671 0.447915 3.2525 0.325873C3.61828 0.203831 4.01756 0.232055 4.36254 0.404339L6.36767 1.40418L11.1851 0.028036C11.3158 -0.00934534 11.4543 -0.00934534 11.585 0.028036L16.4024 1.40418L18.4075 0.404339C18.7525 0.232055 19.1518 0.203831 19.5176 0.325873C19.8834 0.447915 20.1857 0.710231 20.3581 1.05514L22.6169 5.57168C22.703 5.74215 22.7545 5.928 22.7684 6.1185C22.7823 6.30899 22.7583 6.50035 22.6978 6.6815ZM18.5003 7.85768L16.027 2.91121H13.1348L9.20449 6.72877C10.3552 7.4641 12.1595 7.6668 13.7783 6.03524C13.9047 5.90781 14.0738 5.83164 14.253 5.82141C14.4323 5.81117 14.6089 5.86759 14.749 5.9798L17.8767 8.48576L18.5003 7.85768ZM1.45392 6.22158L3.06185 7.02599L5.32057 2.50945L3.71265 1.70504L1.45392 6.22158ZM16.8396 9.51559L14.3209 7.49864C12.5449 8.95295 10.2898 9.14474 8.42098 7.95312C8.23715 7.83618 8.08194 7.67944 7.96682 7.49447C7.85171 7.3095 7.77962 7.10103 7.75588 6.88446C7.73215 6.66789 7.75738 6.44875 7.8297 6.24324C7.90203 6.03773 8.01961 5.85109 8.17374 5.69712C8.17593 5.69447 8.17837 5.69203 8.18102 5.68985L12.2585 1.73503L11.386 1.48598L6.80306 2.79577L4.31528 7.77042L8.78728 10.9654L14.0719 12.286L16.8396 9.51559ZM21.3153 6.22158L19.0593 1.70504L17.4513 2.50945L19.7101 7.02599L21.3153 6.22158Z" fill="white"/>
</svg>
